<svg xmlns="http://www.w3.org/2000/svg" width="40" height="40" viewBox="0 0 40 40">
  <defs>
    <pattern id="cubes" width="40" height="40" patternUnits="userSpaceOnUse">
      <path d="M10 5 L20 10 L20 20 L10 15 Z" fill="none" stroke="#000000" stroke-width="1" opacity="0.2"/>
      <path d="M10 5 L20 0 L30 5 L20 10 Z" fill="none" stroke="#000000" stroke-width="1" opacity="0.2"/>
      <path d="M20 10 L30 5 L30 15 L20 20 Z" fill="none" stroke="#000000" stroke-width="1" opacity="0.2"/>

      <path d="M-10 25 L0 30 L0 40 L-10 35 Z" fill="none" stroke="#000000" stroke-width="1" opacity="0.2"/>
      <path d="M-10 25 L0 20 L10 25 L0 30 Z" fill="none" stroke="#000000" stroke-width="1" opacity="0.2"/>
      <path d="M0 30 L10 25 L10 35 L0 40 Z" fill="none" stroke="#000000" stroke-width="1" opacity="0.2"/>

      <path d="M30 25 L40 30 L40 40 L30 35 Z" fill="none" stroke="#000000" stroke-width="1" opacity="0.2"/>
      <path d="M30 25 L40 20 L50 25 L40 30 Z" fill="none" stroke="#000000" stroke-width="1" opacity="0.2"/>
      <path d="M40 30 L50 25 L50 35 L40 40 Z" fill="none" stroke="#000000" stroke-width="1" opacity="0.2"/>
    </pattern>
  </defs>
  <rect width="100%" height="100%" fill="url(#cubes)"/>
</svg>
